<mxfile host="app.diagrams.net" agent="Mozilla/5.0 (Windows NT 10.0; Win64; x64) AppleWebKit/537.36 (KHTML, like Gecko) Chrome/128.0.0.0 Safari/537.36 Edg/128.0.0.0" version="24.7.10">
  <diagram name="Page-1" id="t0HAGMEWk1PGnPud9-cK">
    <mxGraphModel dx="1386" dy="783" grid="1" gridSize="10" guides="1" tooltips="1" connect="1" arrows="1" fold="1" page="1" pageScale="1" pageWidth="850" pageHeight="1100" math="0" shadow="0">
      <root>
        <mxCell id="0" />
        <mxCell id="1" parent="0" />
        <mxCell id="OSKH0DfVaSWMa6SUT9Fs-1" value="DataDog" style="ellipse;whiteSpace=wrap;html=1;aspect=fixed;fillColor=#dae8fc;strokeColor=#6c8ebf;" vertex="1" parent="1">
          <mxGeometry x="350" y="500" width="90" height="90" as="geometry" />
        </mxCell>
        <mxCell id="OSKH0DfVaSWMa6SUT9Fs-23" style="rounded=0;orthogonalLoop=1;jettySize=auto;html=1;" edge="1" parent="1" source="OSKH0DfVaSWMa6SUT9Fs-2" target="OSKH0DfVaSWMa6SUT9Fs-1">
          <mxGeometry relative="1" as="geometry" />
        </mxCell>
        <mxCell id="OSKH0DfVaSWMa6SUT9Fs-2" value="GCP" style="ellipse;shape=cloud;whiteSpace=wrap;html=1;" vertex="1" parent="1">
          <mxGeometry x="420" y="330" width="140" height="100" as="geometry" />
        </mxCell>
        <mxCell id="OSKH0DfVaSWMa6SUT9Fs-14" style="rounded=0;orthogonalLoop=1;jettySize=auto;html=1;" edge="1" parent="1" source="OSKH0DfVaSWMa6SUT9Fs-4" target="OSKH0DfVaSWMa6SUT9Fs-10">
          <mxGeometry relative="1" as="geometry" />
        </mxCell>
        <mxCell id="OSKH0DfVaSWMa6SUT9Fs-4" value="SonarQube" style="shape=label;whiteSpace=wrap;html=1;boundedLbl=1;backgroundOutline=1;darkOpacity=0.05;darkOpacity2=0.1;rounded=0;" vertex="1" parent="1">
          <mxGeometry x="390" y="60" width="90" height="40" as="geometry" />
        </mxCell>
        <mxCell id="OSKH0DfVaSWMa6SUT9Fs-15" style="rounded=0;orthogonalLoop=1;jettySize=auto;html=1;" edge="1" parent="1" source="OSKH0DfVaSWMa6SUT9Fs-5" target="OSKH0DfVaSWMa6SUT9Fs-10">
          <mxGeometry relative="1" as="geometry" />
        </mxCell>
        <mxCell id="OSKH0DfVaSWMa6SUT9Fs-5" value="Confluence" style="shape=label;whiteSpace=wrap;html=1;boundedLbl=1;backgroundOutline=1;darkOpacity=0.05;darkOpacity2=0.1;rounded=0;" vertex="1" parent="1">
          <mxGeometry x="520" y="60" width="90" height="40" as="geometry" />
        </mxCell>
        <mxCell id="OSKH0DfVaSWMa6SUT9Fs-16" style="rounded=0;orthogonalLoop=1;jettySize=auto;html=1;" edge="1" parent="1" source="OSKH0DfVaSWMa6SUT9Fs-6" target="OSKH0DfVaSWMa6SUT9Fs-10">
          <mxGeometry relative="1" as="geometry" />
        </mxCell>
        <mxCell id="OSKH0DfVaSWMa6SUT9Fs-6" value="Jira" style="shape=label;whiteSpace=wrap;html=1;boundedLbl=1;backgroundOutline=1;darkOpacity=0.05;darkOpacity2=0.1;rounded=0;" vertex="1" parent="1">
          <mxGeometry x="640" y="60" width="60" height="40" as="geometry" />
        </mxCell>
        <mxCell id="OSKH0DfVaSWMa6SUT9Fs-17" style="rounded=0;orthogonalLoop=1;jettySize=auto;html=1;" edge="1" parent="1" source="OSKH0DfVaSWMa6SUT9Fs-7" target="OSKH0DfVaSWMa6SUT9Fs-10">
          <mxGeometry relative="1" as="geometry" />
        </mxCell>
        <mxCell id="OSKH0DfVaSWMa6SUT9Fs-7" value="Tools Portal" style="shape=label;whiteSpace=wrap;html=1;boundedLbl=1;backgroundOutline=1;darkOpacity=0.05;darkOpacity2=0.1;rounded=0;" vertex="1" parent="1">
          <mxGeometry x="730" y="60" width="90" height="40" as="geometry" />
        </mxCell>
        <mxCell id="OSKH0DfVaSWMa6SUT9Fs-19" style="rounded=0;orthogonalLoop=1;jettySize=auto;html=1;" edge="1" parent="1" source="OSKH0DfVaSWMa6SUT9Fs-8" target="OSKH0DfVaSWMa6SUT9Fs-18">
          <mxGeometry relative="1" as="geometry" />
        </mxCell>
        <mxCell id="OSKH0DfVaSWMa6SUT9Fs-8" value="Polarion" style="shape=label;whiteSpace=wrap;html=1;boundedLbl=1;backgroundOutline=1;darkOpacity=0.05;darkOpacity2=0.1;rounded=0;" vertex="1" parent="1">
          <mxGeometry x="130" y="230" width="100" height="40" as="geometry" />
        </mxCell>
        <mxCell id="OSKH0DfVaSWMa6SUT9Fs-12" style="rounded=0;orthogonalLoop=1;jettySize=auto;html=1;" edge="1" parent="1" source="OSKH0DfVaSWMa6SUT9Fs-9" target="OSKH0DfVaSWMa6SUT9Fs-11">
          <mxGeometry relative="1" as="geometry" />
        </mxCell>
        <mxCell id="OSKH0DfVaSWMa6SUT9Fs-9" value="jFrog - Artifactory" style="shape=label;whiteSpace=wrap;html=1;boundedLbl=1;backgroundOutline=1;darkOpacity=0.05;darkOpacity2=0.1;rounded=0;" vertex="1" parent="1">
          <mxGeometry x="250" y="60" width="120" height="40" as="geometry" />
        </mxCell>
        <mxCell id="OSKH0DfVaSWMa6SUT9Fs-22" style="rounded=0;orthogonalLoop=1;jettySize=auto;html=1;" edge="1" parent="1" source="OSKH0DfVaSWMa6SUT9Fs-10" target="OSKH0DfVaSWMa6SUT9Fs-2">
          <mxGeometry relative="1" as="geometry" />
        </mxCell>
        <mxCell id="OSKH0DfVaSWMa6SUT9Fs-10" value="Kubernetes" style="shape=cube;whiteSpace=wrap;html=1;boundedLbl=1;backgroundOutline=1;darkOpacity=0.05;darkOpacity2=0.1;size=10;" vertex="1" parent="1">
          <mxGeometry x="520" y="200" width="110" height="60" as="geometry" />
        </mxCell>
        <mxCell id="OSKH0DfVaSWMa6SUT9Fs-13" style="rounded=0;orthogonalLoop=1;jettySize=auto;html=1;" edge="1" parent="1" source="OSKH0DfVaSWMa6SUT9Fs-11" target="OSKH0DfVaSWMa6SUT9Fs-2">
          <mxGeometry relative="1" as="geometry" />
        </mxCell>
        <mxCell id="OSKH0DfVaSWMa6SUT9Fs-11" value="Compute" style="shape=cube;whiteSpace=wrap;html=1;boundedLbl=1;backgroundOutline=1;darkOpacity=0.05;darkOpacity2=0.1;size=10;" vertex="1" parent="1">
          <mxGeometry x="330" y="200" width="100" height="60" as="geometry" />
        </mxCell>
        <mxCell id="OSKH0DfVaSWMa6SUT9Fs-20" style="rounded=0;orthogonalLoop=1;jettySize=auto;html=1;" edge="1" parent="1" source="OSKH0DfVaSWMa6SUT9Fs-18" target="OSKH0DfVaSWMa6SUT9Fs-1">
          <mxGeometry relative="1" as="geometry" />
        </mxCell>
        <mxCell id="OSKH0DfVaSWMa6SUT9Fs-18" value="On-Premise" style="shape=cube;whiteSpace=wrap;html=1;boundedLbl=1;backgroundOutline=1;darkOpacity=0.05;darkOpacity2=0.1;size=10;" vertex="1" parent="1">
          <mxGeometry x="230" y="350" width="100" height="60" as="geometry" />
        </mxCell>
      </root>
    </mxGraphModel>
  </diagram>
</mxfile>
